# xmcd
#
# Track frame offsets: 
#        150
#        18155
#        36910
#        55562
#        74862
#        90197
#        107520
#        131977
#        149947
#        170202
#        190495
#        220230
#        232362
#        256900
#
# Disc length: 3629 seconds
#
# Revision: 4
# Processed by: cddbd v1.5.2PL0 Copyright (c) Steve Scherf et al.
# Submitted via: ExactAudioCopy v0.99pb5
#
DISCID=dc0e2b0e
DTITLE=Roomful Of Blues - Under One Roof
DYEAR=1997
DGENRE=Blues
TTITLE0=She'll Be So Fine
TTITLE1=Running Out Of Time
TTITLE2=We B 3
TTITLE3=Standing Here at the Crossroads
TTITLE4=Smack Dab in the Middle
TTITLE5=Let Me Live
TTITLE6=Still Livin' in Prison
TTITLE7=Switchin' in the Kitchen
TTITLE8=From You
TTITLE9=Q's Blues
TTITLE10=Easy Baby
TTITLE11=Farmer John
TTITLE12=Baby, Baby, Baby
TTITLE13=Rogue Elephant
EXTD=
EXTT0=
EXTT1=
EXTT2=
EXTT3=
EXTT4=
EXTT5=
EXTT6=
EXTT7=
EXTT8=
EXTT9=
EXTT10=
EXTT11=
EXTT12=
EXTT13=
PLAYORDER=
